<?xml version="1.0" encoding="UTF-8" standalone="no"?><svg xmlns="http://www.w3.org/2000/svg" xmlns:xlink="http://www.w3.org/1999/xlink" fill="#e7dfd8" height="20.5" preserveAspectRatio="xMidYMid meet" version="1" viewBox="1.0 5.7 30.0 20.5" width="30" zoomAndPan="magnify"><g id="change1_1"><path d="M30.94531,6.40186c-0.00427-0.01233-0.01318-0.02167-0.01788-0.03375c-0.01373-0.03534-0.03455-0.0647-0.052-0.09796 c-0.03864-0.07373-0.08209-0.14166-0.13647-0.20245c-0.0271-0.0304-0.05518-0.05664-0.08575-0.08356 c-0.06134-0.05383-0.12775-0.0976-0.20038-0.13507c-0.03357-0.0174-0.06384-0.03662-0.09949-0.05017 C30.24176,5.75629,30.12433,5.72754,30,5.72754H2c-0.12433,0-0.24176,0.02875-0.35333,0.07135 C1.61102,5.81244,1.58075,5.83167,1.54718,5.84906C1.47455,5.88654,1.40814,5.9303,1.3468,5.98413 C1.31622,6.01105,1.28815,6.03729,1.26105,6.06769C1.20667,6.12848,1.16321,6.19641,1.12457,6.27014 C1.10712,6.30341,1.0863,6.33276,1.07257,6.3681c-0.0047,0.01208-0.01361,0.02142-0.01788,0.03375 C1.01874,6.50623,1.00244,6.61328,1.00165,6.71948C1.00165,6.72235,1,6.72467,1,6.72754v18.54492c0,0.55225,0.44775,1,1,1h28 c0.55225,0,1-0.44775,1-1V6.72754c0-0.00287-0.00165-0.00519-0.00165-0.00806C30.99756,6.61328,30.98126,6.50623,30.94531,6.40186z M27.09473,7.72754L16,16.3916L4.90527,7.72754H27.09473z M3,24.27246V8.7774l12.38428,9.67133 c0.18115,0.14111,0.39844,0.21191,0.61572,0.21191s0.43457-0.0708,0.61572-0.21191L29,8.7774v15.49506H3z" fill="inherit"/></g></svg>